<?xml version="1.0" encoding="UTF-8"?>
<svg id="Layer_2" data-name="Layer 2" xmlns="http://www.w3.org/2000/svg" viewBox="0 0 225.86 107">
  <defs>
    <style>
      .cls-1 {
        fill: #848484;
      }

      .cls-2 {
        fill: #eb4136;
      }
    </style>
  </defs>
  <g id="Layer_1-2" data-name="Layer 1">
    <g>
      <path class="cls-1" d="M102.49,106.74c-23.48,0-46.97,.08-70.45-.05-7.91-.04-15.56-1.2-21.95-6.71C3.3,94.11,.32,86.58,.23,77.9,.05,61.58-.21,45.25,.28,28.95,.79,11.98,10.24,2.34,27.08,.52,30.71,.13,34.39,.03,38.05,.03,81.02,0,123.99-.01,166.96,.03c3.99,0,8,.14,11.96,.58,15.54,1.71,25.11,11.09,25.9,26.61,.91,17.62,.95,35.31-.04,52.94-.84,14.9-10.44,24.45-25.38,26.03-14.11,1.49-28.29,.47-42.44,.64-11.49,.14-22.98,.03-34.47,.03,0-.04,0-.07,0-.11Zm.67-98.56c-21.32,0-42.63-.03-63.95,.03-4.32,.01-8.66,.25-12.96,.64-9.56,.86-16.49,6.89-17.26,16.37-1.52,18.92-1.59,37.93,.07,56.85,.78,8.88,7.7,14.98,16.62,15.86,4.3,.42,8.64,.71,12.96,.71,42.8,.05,85.6,.04,128.39,.02,2.83,0,5.66-.09,8.48-.33,14.95-1.26,21.11-7.6,21.4-22.66,.27-13.65,.21-27.31,.08-40.96-.19-19.93-6.01-25.81-25.9-26.49-1.66-.06-3.33-.03-5-.03-20.98,0-41.97,0-62.95,0Z"/>
      <path class="cls-1" d="M213.59,37.59c7.99,1.92,12.4,8.07,12.27,16.13-.13,7.87-4.55,13.77-12.16,15.45-.58-10.44-.34-20.76-.11-31.57Z"/>
      <path class="cls-2" d="M48.98,16.87V90.31c-8.55,.08-17.01,1.01-25.3-.73-4.94-1.03-7.1-5.32-7.26-10.21-.23-6.98-.2-13.98-.22-20.97-.03-9.32-.13-18.65,.05-27.96,.2-10.24,3.3-13.43,13.37-13.88,5.65-.25,11.31-.11,16.97-.11,.64,0,1.28,.21,2.38,.41Z"/>
    </g>
  </g>
</svg>